<svg width="33" height="33" viewBox="0 0 33 33" fill="none" xmlns="http://www.w3.org/2000/svg">
<path d="M27.0391 16.4553H5.96092C5.13083 16.4553 4.45534 17.1308 4.45534 17.9609C4.45534 18.791 5.13083 19.4665 5.96092 19.4665H27.0391C27.8692 19.4665 28.5447 18.791 28.5447 17.9609C28.5447 17.1308 27.8692 16.4553 27.0391 16.4553Z" fill="#888B97"/>
<path d="M27.1776 18.4819C26.9056 18.4056 26.6325 18.5602 26.5573 18.8272L26.5181 18.9647H6.48281L6.44267 18.8272C6.36739 18.5602 6.09239 18.4076 5.82237 18.4819C5.55537 18.5581 5.4018 18.8362 5.47811 19.1022L6.86123 23.9441C7.2898 25.4447 8.67898 26.4926 10.2388 26.4926H22.7602C24.321 26.4926 25.7091 25.4447 26.1377 23.9441L27.5208 19.1022C27.5981 18.8362 27.4435 18.5581 27.1776 18.4819ZM10.2398 24.4851C9.57128 24.4851 8.97506 24.0364 8.79237 23.393L8.14097 21.1106C8.0647 20.8436 8.21926 20.5665 8.48523 20.4903C8.75421 20.414 9.03025 20.5695 9.10553 20.8356L9.75693 23.118C9.81918 23.3318 10.0169 23.4824 10.2397 23.4824C10.5167 23.4824 10.7416 23.7072 10.7416 23.9843C10.7416 24.2613 10.5168 24.4851 10.2398 24.4851Z" fill="#888B97"/>
<path d="M11.2034 25.5411C10.9555 25.4197 10.6554 25.517 10.5299 25.766L9.52617 27.7734C9.40271 28.0213 9.50307 28.3224 9.75102 28.4469C9.82428 28.4831 9.90059 28.5001 9.97587 28.5001C10.1596 28.5001 10.3362 28.3987 10.4245 28.2221L11.4282 26.2147C11.5517 25.9667 11.4513 25.6655 11.2034 25.5411Z" fill="#888B97"/>
<path d="M23.4738 27.7743L22.4701 25.7668C22.3457 25.5179 22.0445 25.4185 21.7966 25.542C21.5487 25.6664 21.4483 25.9676 21.5717 26.2155L22.5754 28.223C22.6638 28.3986 22.8404 28.5 23.0241 28.5C23.0994 28.5 23.1757 28.4829 23.249 28.4478C23.4969 28.3233 23.5973 28.0222 23.4738 27.7743Z" fill="#888B97"/>
<path d="M24.6151 4.5C24.1032 4.5 23.6214 4.69973 23.2591 5.0621L21.6662 6.65501C21.4705 6.85073 21.4705 7.16893 21.6662 7.36465C21.8619 7.56038 22.1801 7.56038 22.3758 7.36465L23.9687 5.77274C24.1403 5.60011 24.3702 5.50474 24.6201 5.50474C25.124 5.50474 25.5335 5.91426 25.5335 6.41811V16.9572C25.5335 17.2342 25.7583 17.4591 26.0354 17.4591C26.3124 17.4591 26.5372 17.2342 26.5382 16.9562V6.41713C26.5383 5.36021 25.6791 4.5 24.6151 4.5Z" fill="#888B97"/>
<path d="M22.8776 7.15681L21.8739 6.15311C21.7595 6.03868 21.5999 5.98547 21.4373 6.01257L18.928 6.42411C18.7433 6.45422 18.5917 6.58469 18.5325 6.76136C18.4733 6.93803 18.5185 7.13475 18.649 7.26822L21.6601 10.3697C21.7555 10.4691 21.887 10.5223 22.0195 10.5223C22.0666 10.5223 22.1148 10.5153 22.162 10.5012C22.3406 10.4491 22.4761 10.3015 22.5123 10.1188L23.0141 7.60952C23.0472 7.44588 22.996 7.27622 22.8776 7.15681Z" fill="#888B97"/>
<path d="M16.3525 10.5806C16.1567 10.3849 15.8385 10.3849 15.6428 10.5806L14.6391 11.5843C14.4434 11.7801 14.4434 12.0983 14.6391 12.294C14.7375 12.3913 14.8659 12.4405 14.9944 12.4405C15.1229 12.4405 15.2514 12.3914 15.3488 12.294L16.3525 11.2903C16.5482 11.0945 16.5482 10.7764 16.3525 10.5806Z" fill="#888B97"/>
<path d="M18.3599 12.588C18.1641 12.3922 17.846 12.3922 17.6502 12.588L16.6465 13.5917C16.4508 13.7874 16.4508 14.1056 16.6465 14.3013C16.7449 14.3987 16.8733 14.4479 17.0018 14.4479C17.1303 14.4479 17.2588 14.3987 17.3562 14.3013L18.3599 13.2976C18.5556 13.1019 18.5556 12.7837 18.3599 12.588Z" fill="#888B97"/>
<path d="M19.3636 9.57673C19.1679 9.381 18.8497 9.381 18.654 9.57673L17.6503 10.5804C17.4545 10.7762 17.4545 11.0944 17.6503 11.2901C17.7487 11.3874 17.8771 11.4366 18.0056 11.4366C18.1341 11.4366 18.2625 11.3875 18.3599 11.2901L19.3636 10.2864C19.5594 10.0906 19.5594 9.77245 19.3636 9.57673Z" fill="#888B97"/>
</svg>
