<svg width="32" height="33" viewBox="0 0 32 33" fill="none" xmlns="http://www.w3.org/2000/svg">
<path d="M23.8 15.2692C26.0713 15.2692 28 17.1618 28 19.5769V23.2692H26.2V24.5H25V23.2692H7V24.5H5.8V23.2692H4V19.5769C4 17.2474 5.86341 15.2692 8.2 15.2692H23.8ZM22.6 8.5C24.2133 8.5 25.6004 9.83021 25.6 11.5769L25.6004 14.517C25.0548 14.2102 24.4443 14.0385 23.8 14.0385L22.6 14.0378C22.6 12.9839 21.7586 12.1923 20.8 12.1923H17.2C16.739 12.1923 16.3185 12.37 16.0001 12.6623C15.682 12.3703 15.2613 12.1923 14.8 12.1923H11.2C10.2061 12.1923 9.40033 13.0185 9.4 14.0378L8.2 14.0385C7.55587 14.0385 6.9456 14.2101 6.4 14.5167V11.5769C6.4 9.9223 7.69394 8.5 9.4 8.5H22.6ZM14.8 13.4228C15.1256 13.4228 15.4 13.7305 15.4 14.0385L10.6 14.0378C10.6 13.6613 10.8923 13.4231 11.2 13.4231L14.8 13.4228ZM20.8 13.4272C21.1395 13.4228 21.3997 13.7225 21.4 14.0378H16.6C16.6 13.656 16.8923 13.4231 17.2 13.4231L20.8 13.4272Z" fill="#888B97"/>
</svg>
