<svg width="32" height="33" viewBox="0 0 32 33" fill="none" xmlns="http://www.w3.org/2000/svg">
<path d="M27.3838 11.1286L17.357 4.87929C16.5309 4.36917 15.4665 4.37438 14.6453 4.89024L4.60814 11.1338C3.98488 11.5255 3.81267 12.3251 4.22271 12.9197C4.63329 13.5144 5.47086 13.6792 6.09466 13.2869L16.0104 7.11852L25.9142 13.2922C26.1416 13.4325 26.3959 13.4987 26.6473 13.4987C27.0913 13.4987 27.5243 13.2916 27.7829 12.9109C28.1885 12.3131 28.0092 11.5161 27.3838 11.1286Z" fill="#888B97"/>
<path d="M24.2107 19.2531C24.134 18.8031 23.7525 18.4702 23.3075 18.4702H22.796L22.6017 16.3962C22.3942 14.1781 20.5985 12.5 18.4248 12.5H13.5761C11.4019 12.5 9.6067 14.1787 9.39866 16.3962L9.20484 18.4702H8.69287C8.24737 18.4702 7.86632 18.8031 7.78869 19.2531L7.02759 23.6768C6.93321 24.2251 7.08442 24.7895 7.43351 25.215C7.76941 25.6249 8.26412 25.8694 8.78167 25.8876V26.6221C8.78167 27.662 9.59452 28.5 10.6098 28.5H11.1872C12.2015 28.5 13.0266 27.662 13.0266 26.6221V25.8996H18.9794V26.6206C18.9794 27.6609 19.7978 28.5 20.8121 28.5H21.39C22.4043 28.5 23.2238 27.6609 23.2238 26.6206V25.8876C23.7413 25.8694 24.233 25.627 24.5679 25.2176C24.917 24.791 25.0661 24.2298 24.9728 23.6804L24.2107 19.2531ZM10.3906 24.1933C9.53465 24.1933 8.84052 23.4822 8.84052 22.6036C8.84052 21.725 9.53465 21.0134 10.3906 21.0134C11.2471 21.0134 11.9417 21.7245 11.9417 22.6036C11.9417 23.4822 11.2471 24.1933 10.3906 24.1933ZM10.7773 18.4702L10.9564 16.557C11.0868 15.166 12.2127 14.1183 13.5761 14.1183H13.8557V14.7196C13.8557 15.2414 14.2601 15.657 14.7685 15.657H17.2324C17.7408 15.657 18.1523 15.2414 18.1523 14.7196V14.1188H18.4248C19.7882 14.1188 20.9141 15.1665 21.044 16.5575L21.2236 18.4707L10.7773 18.4702ZM21.6082 24.1933C20.7522 24.1933 20.0581 23.4822 20.0581 22.6036C20.0581 21.725 20.7522 21.0134 21.6082 21.0134C22.4647 21.0134 23.1593 21.7245 23.1593 22.6036C23.1593 23.4822 22.4647 24.1933 21.6082 24.1933Z" fill="#888B97"/>
</svg>
