<svg width="20" height="20" viewBox="0 0 20 20" fill="none" xmlns="http://www.w3.org/2000/svg">
<path d="M16.6495 9.44248C16.7952 9.33746 16.9034 9.19094 16.9587 9.02348C17.014 8.85602 17.0138 8.67601 16.958 8.50869C16.9022 8.34138 16.7937 8.19514 16.6476 8.0905C16.5016 7.98585 16.3253 7.92804 16.1436 7.92517L12.6139 7.7962C12.5965 7.79504 12.5799 7.78905 12.566 7.77895C12.5521 7.76886 12.5415 7.75509 12.5354 7.7393L11.3157 4.55293C11.2545 4.39082 11.1432 4.25084 10.9969 4.15194C10.8506 4.05304 10.6765 4 10.498 4C10.3196 4 10.1454 4.05304 9.99918 4.15194C9.85292 4.25084 9.74161 4.39082 9.68033 4.55293L8.46455 7.75068C8.45854 7.76647 8.44794 7.78024 8.43402 7.79033C8.42011 7.80043 8.40347 7.80642 8.38611 7.80758L4.85644 7.93655C4.6747 7.93942 4.49845 7.99723 4.3524 8.10188C4.20634 8.20652 4.09781 8.35276 4.04203 8.52007C3.98624 8.68739 3.98599 8.8674 4.04131 9.03486C4.09663 9.20232 4.20475 9.34884 4.35052 9.45386L7.11935 11.5591C7.13321 11.5697 7.14357 11.5839 7.14914 11.6001C7.15472 11.6163 7.15527 11.6337 7.15073 11.6502L6.19771 14.9162C6.14833 15.0825 6.15311 15.2595 6.21142 15.4231C6.26972 15.5867 6.37871 15.7289 6.52356 15.8305C6.66841 15.932 6.84209 15.988 7.02097 15.9907C7.19985 15.9934 7.37525 15.9427 7.5233 15.8456L10.449 13.9489C10.4634 13.9393 10.4805 13.9341 10.498 13.9341C10.5156 13.9341 10.5327 13.9393 10.5471 13.9489L13.4728 15.8456C13.6188 15.946 13.7936 16 13.9728 16C14.152 16 14.3268 15.946 14.4728 15.8456C14.6177 15.745 14.7268 15.6034 14.7851 15.4404C14.8434 15.2773 14.848 15.1009 14.7984 14.9352L13.8375 11.6578C13.8324 11.6413 13.8327 11.6237 13.8383 11.6075C13.8439 11.5912 13.8546 11.5769 13.8689 11.5667L16.6495 9.44248Z" fill="#F59E0B"/>
</svg>
