<svg width="24" height="25" viewBox="0 0 24 25" fill="none" xmlns="http://www.w3.org/2000/svg">
<path d="M8.38439 2.97912C8.90949 2.8208 9.47298 2.84711 9.98104 3.05365C10.4891 3.2602 10.9111 3.63453 11.1768 4.11432L11.2668 4.29312L12.06 6.05832C12.3011 6.59411 12.3793 7.18894 12.285 7.76885C12.1907 8.34876 11.928 8.88814 11.5296 9.31992L11.3712 9.47832L10.1184 10.6459C9.8928 10.8595 10.062 11.6863 10.8792 13.0999C11.6124 14.3719 12.2112 14.9659 12.504 14.9983H12.5556L12.6192 14.9863L15.0792 14.2339C15.4098 14.1325 15.7626 14.1285 16.0955 14.2224C16.4283 14.3162 16.727 14.504 16.956 14.7631L17.0664 14.9011L18.6936 17.1571C19.0129 17.5992 19.1721 18.1368 19.1451 18.6814C19.118 19.2261 18.9063 19.7453 18.5448 20.1535L18.3984 20.3047L17.7468 20.9215C17.1627 21.4746 16.4322 21.8484 15.6419 21.9984C14.8516 22.1483 14.0349 22.0682 13.2888 21.7675C10.9668 20.8315 8.85719 18.6931 6.94079 15.3739C5.02079 12.0463 4.2228 9.14592 4.5792 6.66192C4.68715 5.91091 4.99653 5.20316 5.47446 4.61388C5.9524 4.02459 6.58104 3.57578 7.2936 3.31512L7.52519 3.23832L8.38439 2.97912Z" fill="white"/>
</svg>
