<svg width="33" height="33" viewBox="0 0 33 33" fill="none" xmlns="http://www.w3.org/2000/svg">
<path d="M27.2884 9.5H22.9324C22.2631 9.5 21.7207 10.0367 21.7207 10.6996V13.8135H18.5759C17.9064 13.8135 17.3641 14.35 17.3641 15.0129V18.1271H14.2192C13.5497 18.1271 13.0075 18.6643 13.0075 19.3265V22.5907H9.71171C9.39012 22.5907 9.08195 22.7169 8.85482 22.9416C8.6275 23.1664 8.5 23.473 8.5 23.7901L8.50039 26.2999C8.50039 26.9634 9.04297 27.5 9.71206 27.5H27.2884C27.9579 27.5 28.5 26.9634 28.5 26.2999V10.6995C28.5001 10.0367 27.9579 9.5 27.2884 9.5Z" fill="#888B97"/>
<path d="M21.264 5.7453C20.9425 5.42389 20.4158 5.41771 20.0863 5.73043C14.7431 10.8055 9.65982 15.7624 4.74409 20.5549C4.58768 20.7074 4.5 20.9146 4.5 21.1296V26.6877C4.5 27.1356 4.87278 27.5 5.33294 27.5C5.79264 27.5 6.16608 27.1357 6.16608 26.6877V21.4657C11.002 16.7503 16.0017 11.878 21.2485 6.89368C21.5778 6.58102 21.5845 6.06652 21.264 5.7453Z" fill="#888B97"/>
</svg>
